<?xml version="1.0" encoding="utf-8"?>
<!-- Generator: Adobe Illustrator 16.0.0, SVG Export Plug-In . SVG Version: 6.00 Build 0)  -->
<!DOCTYPE svg PUBLIC "-//W3C//DTD SVG 1.1//EN" "http://www.w3.org/Graphics/SVG/1.1/DTD/svg11.dtd">
<svg version="1.1" id="Layer_1" xmlns="http://www.w3.org/2000/svg" xmlns:xlink="http://www.w3.org/1999/xlink" x="0px" y="0px"
	 width="366.4px" height="70.7px" viewBox="0 0 366.4 70.7" enable-background="new 0 0 366.4 70.7" xml:space="preserve">
<rect x="-107.1" y="306.8" fill-rule="evenodd" clip-rule="evenodd" fill="#FFFFFF" width="629.7" height="181"/>
<rect x="-107.1" y="125.8" fill-rule="evenodd" clip-rule="evenodd" width="629.7" height="181"/>
<g>
	<path fill-rule="evenodd" clip-rule="evenodd" fill="#F58220" d="M39.4,0.1L7.2,5.3C3.3,5.9,0,8.6,0,12.5v27.4c0,4,3.3,6.5,7.2,7.2
		l3.6,0.7l-0.2,10l9.6-8.2l19.2,3.6c3.9,0.7,7.2-3.3,7.2-7.2V7.3C46.7,3.3,43.3-0.6,39.4,0.1z"/>
	<path fill-rule="evenodd" clip-rule="evenodd" fill="#D1D3D4" d="M35.6,13l32.2,5.2c3.9,0.6,7.2,3.3,7.2,7.2v27.4
		c0,4-3.3,6.5-7.2,7.2l-3.6,0.7l0.2,10l-9.6-8.2l-19.2,3.6c-3.9,0.7-7.2-3.3-7.2-7.2V20.2C28.4,16.2,31.7,12.3,35.6,13z"/>
	<path fill-rule="evenodd" clip-rule="evenodd" fill="#939598" d="M28.4,51.1l11.1,2.1c3.9,0.7,7.2-3.3,7.2-7.2V14.8L35.6,13
		c-3.9-0.6-7.2,3.3-7.2,7.2V51.1z"/>
</g>
<g>
	<g>
		<path fill-rule="evenodd" clip-rule="evenodd" fill="#F58220" d="M39.4,181.1l-32.2,5.2c-3.9,0.6-7.2,3.3-7.2,7.2v27.4
			c0,4,3.3,6.5,7.2,7.2l3.6,0.7l-0.2,10l9.6-8.2l19.2,3.6c3.9,0.7,7.2-3.3,7.2-7.2v-38.6C46.7,184.3,43.3,180.4,39.4,181.1z"/>
		<path fill-rule="evenodd" clip-rule="evenodd" fill="#D1D3D4" d="M35.6,194l32.2,5.2c3.9,0.6,7.2,3.3,7.2,7.2v27.4
			c0,4-3.3,6.5-7.2,7.2l-3.6,0.7l0.2,10l-9.6-8.2l-19.2,3.6c-3.9,0.7-7.2-3.3-7.2-7.2v-38.6C28.4,197.2,31.7,193.3,35.6,194z"/>
		<path fill-rule="evenodd" clip-rule="evenodd" fill="#939598" d="M28.4,232.1l11.1,2.1c3.9,0.7,7.2-3.3,7.2-7.2v-31.2L35.6,194
			c-3.9-0.6-7.2,3.3-7.2,7.2V232.1z"/>
	</g>
	<g>
		<path fill="#F58220" d="M117.1,211.9l-6.3,3.5c-1.2-1.2-2.4-2.1-3.5-2.6c-1.2-0.5-2.5-0.7-4.1-0.7c-2.8,0-5.1,0.8-6.9,2.5
			c-1.7,1.7-2.6,3.9-2.6,6.5c0,2.6,0.8,4.7,2.5,6.3c1.7,1.6,3.9,2.5,6.7,2.5c3.4,0,6-1.2,7.9-3.5l6,4.1c-3.3,4.2-7.8,6.3-13.8,6.3
			c-5.3,0-9.5-1.6-12.5-4.7c-3-3.2-4.5-6.9-4.5-11.1c0-2.9,0.7-5.6,2.2-8.1c1.5-2.5,3.5-4.4,6.1-5.8c2.6-1.4,5.6-2.1,8.8-2.1
			c3,0,5.7,0.6,8.1,1.8S115.6,209.7,117.1,211.9L117.1,211.9z M134.2,205c2.9,0,5.6,0.7,8.1,2.1c2.5,1.4,4.5,3.4,5.9,5.8
			c1.4,2.5,2.1,5.1,2.1,7.9c0,2.9-0.7,5.5-2.1,8c-1.4,2.5-3.4,4.4-5.8,5.8c-2.5,1.4-5.2,2.1-8.1,2.1c-4.3,0-8.1-1.5-11.1-4.6
			s-4.6-6.8-4.6-11.3c0-4.7,1.7-8.7,5.2-11.8C126.8,206.3,130.3,205,134.2,205L134.2,205z M134.3,212.1c-2.4,0-4.3,0.8-5.9,2.5
			c-1.6,1.6-2.3,3.7-2.3,6.3c0,2.6,0.8,4.8,2.3,6.4c1.5,1.6,3.5,2.5,5.9,2.5c2.4,0,4.4-0.8,5.9-2.5c1.6-1.7,2.4-3.8,2.4-6.4
			c0-2.6-0.8-4.7-2.3-6.3C138.7,212.9,136.7,212.1,134.3,212.1L134.3,212.1z M154.8,205.7h7.6v3.5c1.3-1.4,2.7-2.5,4.3-3.2
			s3.3-1.1,5.2-1.1c1.9,0,3.6,0.5,5.1,1.4c1.5,0.9,2.7,2.3,3.7,4.1c1.2-1.8,2.7-3.1,4.4-4.1c1.8-0.9,3.7-1.4,5.8-1.4
			c2.2,0,4,0.5,5.7,1.5c1.6,1,2.8,2.3,3.5,3.9c0.7,1.6,1.1,4.2,1.1,7.9V236h-7.7v-15.4c0-3.4-0.4-5.8-1.3-7
			c-0.9-1.2-2.1-1.8-3.8-1.8c-1.3,0-2.5,0.4-3.5,1.1c-1,0.7-1.8,1.8-2.3,3.1c-0.5,1.3-0.8,3.4-0.8,6.3V236h-7.7v-14.7
			c0-2.7-0.2-4.7-0.6-5.9c-0.4-1.2-1-2.1-1.8-2.7c-0.8-0.6-1.8-0.9-2.9-0.9c-1.3,0-2.4,0.4-3.4,1.1c-1,0.8-1.8,1.8-2.3,3.2
			c-0.5,1.4-0.8,3.5-0.8,6.4V236h-7.6V205.7L154.8,205.7z M237.3,223.1h-24.4c0.4,2.1,1.3,3.9,2.8,5.1c1.5,1.3,3.5,1.9,5.9,1.9
			c2.8,0,5.3-1,7.3-3l6.4,3c-1.6,2.3-3.5,3.9-5.7,5c-2.2,1.1-4.9,1.6-7.9,1.6c-4.8,0-8.6-1.5-11.6-4.5c-3-3-4.5-6.8-4.5-11.3
			c0-4.6,1.5-8.5,4.5-11.5c3-3.1,6.7-4.6,11.2-4.6c4.8,0,8.7,1.5,11.6,4.6c3,3.1,4.5,7.1,4.5,12.1L237.3,223.1L237.3,223.1z
			 M229.6,217.1c-0.5-1.7-1.5-3.1-3-4.1c-1.5-1.1-3.2-1.6-5.1-1.6c-2.1,0-4,0.6-5.6,1.8c-1,0.7-1.9,2.1-2.8,3.9H229.6L229.6,217.1z
			 M264.2,194.1h7.6v42h-7.6v-3.2c-1.5,1.4-3,2.4-4.5,3.1c-1.5,0.6-3.1,0.9-4.9,0.9c-3.9,0-7.3-1.5-10.2-4.6
			c-2.9-3-4.3-6.8-4.3-11.3c0-4.7,1.4-8.5,4.1-11.5c2.8-3,6.1-4.5,10.1-4.5c1.8,0,3.5,0.4,5.1,1c1.6,0.7,3.1,1.7,4.4,3.1V194.1
			L264.2,194.1z M256.2,212c-2.4,0-4.3,0.8-5.9,2.5c-1.6,1.7-2.3,3.8-2.3,6.4c0,2.6,0.8,4.8,2.4,6.5c1.6,1.7,3.5,2.5,5.9,2.5
			c2.4,0,4.4-0.8,6-2.5c1.6-1.7,2.4-3.8,2.4-6.5c0-2.6-0.8-4.8-2.4-6.4C260.6,212.8,258.7,212,256.2,212L256.2,212z M280.9,193.3
			c1.3,0,2.5,0.5,3.4,1.4c1,1,1.4,2.1,1.4,3.5c0,1.4-0.5,2.5-1.4,3.5c-1,1-2.1,1.4-3.4,1.4c-1.4,0-2.5-0.5-3.5-1.5
			c-1-1-1.4-2.2-1.4-3.5c0-1.3,0.5-2.5,1.4-3.4C278.4,193.7,279.5,193.3,280.9,193.3L280.9,193.3z M277.1,205.7h7.6V236h-7.6V205.7
			L277.1,205.7z M312.4,205.7h7.6V236h-7.6v-3.2c-1.5,1.4-3,2.4-4.5,3.1c-1.5,0.6-3.1,0.9-4.9,0.9c-3.9,0-7.3-1.5-10.2-4.6
			c-2.9-3-4.3-6.8-4.3-11.3c0-4.7,1.4-8.5,4.1-11.5c2.8-3,6.1-4.5,10.1-4.5c1.8,0,3.5,0.4,5.1,1c1.6,0.7,3.1,1.7,4.4,3.1V205.7
			L312.4,205.7z M304.4,212c-2.4,0-4.3,0.8-5.9,2.5c-1.6,1.7-2.3,3.8-2.3,6.4c0,2.6,0.8,4.8,2.4,6.5c1.6,1.7,3.5,2.5,5.9,2.5
			c2.4,0,4.4-0.8,6-2.5c1.6-1.7,2.4-3.8,2.4-6.5c0-2.6-0.8-4.8-2.4-6.4C308.8,212.8,306.8,212,304.4,212L304.4,212z M326,205.7h7.6
			v3.1c1.7-1.5,3.3-2.5,4.7-3c1.4-0.6,2.8-0.9,4.3-0.9c3,0,5.6,1.1,7.7,3.2c1.8,1.8,2.6,4.4,2.6,7.9v20h-7.5v-13.3
			c0-3.6-0.2-6-0.5-7.2c-0.3-1.2-0.9-2.1-1.7-2.7c-0.8-0.6-1.8-0.9-3-0.9c-1.5,0-2.9,0.5-4,1.5c-1.1,1-1.9,2.5-2.3,4.3
			c-0.2,1-0.3,3-0.3,6.2V236H326V205.7z"/>
		<path fill="#A7A9AC" d="M362.8,228.1c1.2,0,2.2,0.4,3.1,1.3c0.9,0.8,1.3,1.9,1.3,3.1c0,1.2-0.4,2.2-1.3,3.1s-1.9,1.3-3.1,1.3
			c-1.2,0-2.2-0.4-3.1-1.3c-0.9-0.9-1.3-1.9-1.3-3.1c0-1.2,0.4-2.2,1.3-3.1C360.6,228.5,361.6,228.1,362.8,228.1L362.8,228.1z
			 M376,193.3c1.3,0,2.5,0.5,3.4,1.4c1,1,1.4,2.1,1.4,3.5c0,1.4-0.5,2.5-1.4,3.5c-1,1-2.1,1.4-3.4,1.4c-1.4,0-2.5-0.5-3.5-1.5
			c-1-1-1.4-2.2-1.4-3.5c0-1.3,0.5-2.5,1.4-3.4C373.5,193.7,374.7,193.3,376,193.3L376,193.3z M372.2,205.7h7.6V236h-7.6V205.7
			L372.2,205.7z M399.3,205c2.9,0,5.6,0.7,8.1,2.1c2.5,1.4,4.5,3.4,5.9,5.8c1.4,2.5,2.1,5.1,2.1,7.9c0,2.9-0.7,5.5-2.1,8
			c-1.4,2.5-3.4,4.4-5.8,5.8c-2.5,1.4-5.2,2.1-8.1,2.1c-4.3,0-8.1-1.5-11.1-4.6s-4.6-6.8-4.6-11.3c0-4.7,1.7-8.7,5.2-11.8
			C391.9,206.3,395.4,205,399.3,205L399.3,205z M399.4,212.1c-2.4,0-4.3,0.8-5.9,2.5s-2.3,3.7-2.3,6.3c0,2.6,0.8,4.8,2.3,6.4
			c1.5,1.6,3.5,2.5,5.9,2.5s4.4-0.8,5.9-2.5c1.6-1.7,2.4-3.8,2.4-6.4c0-2.6-0.8-4.7-2.3-6.3C403.8,212.9,401.9,212.1,399.4,212.1z"
			/>
	</g>
</g>
<g>
	<g>
		<path fill-rule="evenodd" clip-rule="evenodd" fill="#8F8F8F" d="M39.4,362.1l-32.2,5.2c-3.9,0.6-7.2,3.3-7.2,7.2v27.4
			c0,4,3.3,6.5,7.2,7.2l3.6,0.7l-0.2,10l9.6-8.2l19.2,3.6c3.9,0.7,7.2-3.3,7.2-7.2v-38.6C46.7,365.3,43.3,361.4,39.4,362.1z"/>
		<path fill-rule="evenodd" clip-rule="evenodd" fill="#C1C1C1" d="M35.6,375l32.2,5.2c3.9,0.6,7.2,3.3,7.2,7.2v27.3
			c0,4-3.3,6.5-7.2,7.2l-3.6,0.7l0.2,10l-9.6-8.2l-19.2,3.6c-3.9,0.7-7.2-3.3-7.2-7.2v-38.6C28.4,378.2,31.7,374.3,35.6,375z"/>
		<path fill-rule="evenodd" clip-rule="evenodd" fill="#707070" d="M28.4,413.1l11.1,2.1c3.9,0.7,7.2-3.3,7.2-7.2v-31.2L35.6,375
			c-3.9-0.6-7.2,3.3-7.2,7.2V413.1z"/>
	</g>
	<path fill="#8F8F8F" d="M117.1,392.9l-6.3,3.5c-1.2-1.2-2.4-2.1-3.5-2.6c-1.2-0.5-2.5-0.7-4.1-0.7c-2.8,0-5.1,0.8-6.9,2.5
		c-1.7,1.7-2.6,3.9-2.6,6.5c0,2.6,0.8,4.7,2.5,6.3c1.7,1.6,3.9,2.5,6.7,2.5c3.4,0,6-1.2,7.9-3.5l6,4.1c-3.3,4.2-7.8,6.3-13.8,6.3
		c-5.3,0-9.5-1.6-12.5-4.7c-3-3.2-4.5-6.9-4.5-11.1c0-2.9,0.7-5.6,2.2-8.1c1.5-2.5,3.5-4.4,6.1-5.8c2.6-1.4,5.6-2.1,8.8-2.1
		c3,0,5.7,0.6,8.1,1.8S115.6,390.7,117.1,392.9L117.1,392.9z M326,386.7h7.6v3.1c1.7-1.5,3.3-2.5,4.7-3c1.4-0.6,2.8-0.9,4.3-0.9
		c3,0,5.6,1.1,7.7,3.2c1.8,1.8,2.6,4.4,2.6,7.9v20h-7.5v-13.3c0-3.6-0.2-6-0.5-7.2c-0.3-1.2-0.9-2.1-1.7-2.7c-0.8-0.6-1.8-0.9-3-0.9
		c-1.5,0-2.9,0.5-4,1.5c-1.1,1-1.9,2.5-2.3,4.3c-0.2,1-0.3,3-0.3,6.2V417H326V386.7L326,386.7z M312.4,386.7h7.6V417h-7.6v-3.2
		c-1.5,1.4-3,2.4-4.5,3.1c-1.5,0.6-3.1,0.9-4.9,0.9c-3.9,0-7.3-1.5-10.2-4.6c-2.9-3-4.3-6.8-4.3-11.3c0-4.7,1.4-8.5,4.1-11.5
		c2.8-3,6.1-4.5,10.1-4.5c1.8,0,3.5,0.4,5.1,1c1.6,0.7,3.1,1.7,4.4,3.1V386.7L312.4,386.7z M304.4,393c-2.4,0-4.3,0.8-5.9,2.5
		c-1.6,1.7-2.3,3.8-2.3,6.4c0,2.6,0.8,4.8,2.4,6.5c1.6,1.7,3.5,2.5,5.9,2.5c2.4,0,4.4-0.8,6-2.5c1.6-1.7,2.4-3.8,2.4-6.5
		c0-2.6-0.8-4.8-2.4-6.4C308.8,393.8,306.8,393,304.4,393L304.4,393z M280.9,374.3c1.3,0,2.5,0.5,3.4,1.4c1,1,1.4,2.1,1.4,3.5
		c0,1.4-0.5,2.5-1.4,3.5c-1,1-2.1,1.4-3.4,1.4c-1.4,0-2.5-0.5-3.5-1.5c-1-1-1.4-2.2-1.4-3.5c0-1.3,0.5-2.5,1.4-3.4
		C278.4,374.7,279.5,374.3,280.9,374.3L280.9,374.3z M277.1,386.7h7.6V417h-7.6V386.7L277.1,386.7z M264.2,375h7.6v42h-7.6v-3.2
		c-1.5,1.4-3,2.4-4.5,3.1c-1.5,0.6-3.1,0.9-4.9,0.9c-3.9,0-7.3-1.5-10.2-4.6c-2.9-3-4.3-6.8-4.3-11.3c0-4.7,1.4-8.5,4.1-11.5
		c2.8-3,6.1-4.5,10.1-4.5c1.8,0,3.5,0.4,5.1,1c1.6,0.7,3.1,1.7,4.4,3.1V375L264.2,375z M256.2,393c-2.4,0-4.3,0.8-5.9,2.5
		c-1.6,1.7-2.3,3.8-2.3,6.4c0,2.6,0.8,4.8,2.4,6.5c1.6,1.7,3.5,2.5,5.9,2.5c2.4,0,4.4-0.8,6-2.5c1.6-1.7,2.4-3.8,2.4-6.5
		c0-2.6-0.8-4.8-2.4-6.4C260.6,393.8,258.7,393,256.2,393L256.2,393z M237.3,404.1h-24.4c0.4,2.1,1.3,3.9,2.8,5.1
		c1.5,1.3,3.5,1.9,5.9,1.9c2.8,0,5.3-1,7.3-3l6.4,3c-1.6,2.3-3.5,3.9-5.7,5c-2.2,1.1-4.9,1.6-7.9,1.6c-4.8,0-8.6-1.5-11.6-4.5
		c-3-3-4.5-6.8-4.5-11.3c0-4.6,1.5-8.5,4.5-11.5c3-3.1,6.7-4.6,11.2-4.6c4.8,0,8.7,1.5,11.6,4.6c3,3.1,4.5,7.1,4.5,12.1L237.3,404.1
		L237.3,404.1z M229.6,398.1c-0.5-1.7-1.5-3.1-3-4.1c-1.5-1.1-3.2-1.6-5.1-1.6c-2.1,0-4,0.6-5.6,1.8c-1,0.7-1.9,2.1-2.8,3.9H229.6
		L229.6,398.1z M154.8,386.7h7.6v3.5c1.3-1.4,2.7-2.5,4.3-3.2c1.6-0.7,3.3-1.1,5.2-1.1c1.9,0,3.6,0.5,5.1,1.4
		c1.5,0.9,2.7,2.3,3.7,4.1c1.2-1.8,2.7-3.1,4.4-4.1c1.8-0.9,3.7-1.4,5.8-1.4c2.2,0,4,0.5,5.7,1.5c1.6,1,2.8,2.3,3.5,3.9
		c0.7,1.6,1.1,4.2,1.1,7.9V417h-7.7v-15.4c0-3.4-0.4-5.8-1.3-7c-0.9-1.2-2.1-1.8-3.8-1.8c-1.3,0-2.5,0.4-3.5,1.1
		c-1,0.7-1.8,1.8-2.3,3.1c-0.5,1.3-0.8,3.4-0.8,6.3V417h-7.7v-14.7c0-2.7-0.2-4.7-0.6-5.9c-0.4-1.2-1-2.1-1.8-2.7
		c-0.8-0.6-1.8-0.9-2.9-0.9c-1.3,0-2.4,0.4-3.4,1.1c-1,0.8-1.8,1.8-2.3,3.2c-0.5,1.4-0.8,3.5-0.8,6.4V417h-7.6V386.7L154.8,386.7z
		 M134.2,386c2.9,0,5.6,0.7,8.1,2.1c2.5,1.4,4.5,3.4,5.9,5.8c1.4,2.5,2.1,5.1,2.1,7.9c0,2.9-0.7,5.5-2.1,8c-1.4,2.5-3.4,4.4-5.8,5.8
		c-2.5,1.4-5.2,2.1-8.1,2.1c-4.3,0-8.1-1.5-11.1-4.6c-3.1-3.1-4.6-6.8-4.6-11.3c0-4.7,1.7-8.7,5.2-11.8
		C126.8,387.3,130.3,386,134.2,386L134.2,386z M134.3,393.1c-2.4,0-4.3,0.8-5.9,2.5c-1.6,1.6-2.3,3.7-2.3,6.3c0,2.6,0.8,4.8,2.3,6.4
		c1.5,1.6,3.5,2.5,5.9,2.5c2.4,0,4.4-0.8,5.9-2.5c1.6-1.7,2.4-3.8,2.4-6.4c0-2.6-0.8-4.7-2.3-6.3
		C138.7,393.9,136.7,393.1,134.3,393.1z"/>
	<path fill="#707070" d="M362.8,409.1c1.2,0,2.2,0.4,3.1,1.3c0.9,0.8,1.3,1.9,1.3,3.1c0,1.2-0.4,2.2-1.3,3.1s-1.9,1.3-3.1,1.3
		c-1.2,0-2.2-0.4-3.1-1.3c-0.9-0.9-1.3-1.9-1.3-3.1c0-1.2,0.4-2.2,1.3-3.1C360.6,409.5,361.6,409.1,362.8,409.1L362.8,409.1z
		 M399.3,386c2.9,0,5.6,0.7,8.1,2.1c2.5,1.4,4.5,3.4,5.9,5.8c1.4,2.5,2.1,5.1,2.1,7.9c0,2.9-0.7,5.5-2.1,8c-1.4,2.5-3.4,4.4-5.8,5.8
		c-2.5,1.4-5.2,2.1-8.1,2.1c-4.3,0-8.1-1.5-11.1-4.6c-3.1-3.1-4.6-6.8-4.6-11.3c0-4.7,1.7-8.7,5.2-11.8
		C391.9,387.3,395.4,386,399.3,386L399.3,386z M399.4,393.1c-2.4,0-4.3,0.8-5.9,2.5c-1.6,1.6-2.3,3.7-2.3,6.3c0,2.6,0.8,4.8,2.3,6.4
		c1.5,1.6,3.5,2.5,5.9,2.5c2.4,0,4.4-0.8,5.9-2.5c1.6-1.7,2.4-3.8,2.4-6.4c0-2.6-0.8-4.7-2.3-6.3
		C403.8,393.9,401.9,393.1,399.4,393.1L399.4,393.1z M376,374.3c1.3,0,2.5,0.5,3.4,1.4c1,1,1.4,2.1,1.4,3.5c0,1.4-0.5,2.5-1.4,3.5
		c-1,1-2.1,1.4-3.4,1.4c-1.4,0-2.5-0.5-3.5-1.5c-1-1-1.4-2.2-1.4-3.5c0-1.3,0.5-2.5,1.4-3.4C373.5,374.7,374.7,374.3,376,374.3
		L376,374.3z M372.2,386.7h7.6V417h-7.6V386.7z"/>
</g>
<g>
	<path fill="#F58220" d="M87.1,24.7h2.7c0-2.4-0.2-5,0.2-7.4c0.5-3.3,3.3-4.9,6.4-5.1c1.7-0.1,3.4,0.2,5,0.7
		c0.4,0.1,1.1,0.1,1.1,0.6c0,0.3,0,0.7,0,1c0,1.5,0,3,0,4.6c-1.2-0.3-2.6-0.7-3.9-0.3c-1.1,0.3-1.2,1.2-1.2,2.2c0,1.2,0,2.5,0,3.7
		h4.8v6.4h-4.8V55h-7.6V31.1c-0.8,0-1.6,0-2.4,0c-0.5,0-0.3-0.9-0.3-1.3C87.1,28.2,87.1,26.4,87.1,24.7z"/>
	<path fill="#F58220" d="M105.8,13h7.6v42c-2.4,0-4.9,0-7.3,0c-0.4,0-0.3,0-0.3-0.4c0-0.6,0-1.2,0-1.7c0-5.3,0-10.6,0-16
		C105.8,28.9,105.8,21,105.8,13z"/>
	<path fill="#F58220" d="M150.7,42.1h-24.4c0.5,3,2.4,5.5,5.3,6.5c2.9,1,6.4,0.6,9-1.1c0.7-0.4,1.4-1.6,2.1-1.2
		c0.7,0.3,1.4,0.7,2.1,1c1.3,0.6,2.6,1.2,3.9,1.8c-3.3,4.7-8.4,6.7-14,6.6c-5.1-0.1-9.8-2.2-12.9-6.3c-6.1-8.4-2.3-21.7,7.9-24.8
		c5.5-1.7,11.9-0.5,16.1,3.5C149.7,31.8,150.8,36.8,150.7,42.1z M143.1,36.1c-1.1-3.6-4.5-5.7-8.1-5.7c-1.8,0-3.6,0.5-5.1,1.4
		c-1.6,1-2.5,2.6-3.3,4.3C132.1,36.1,137.6,36.1,143.1,36.1z"/>
	<path fill="#F58220" d="M154.1,24.7h8.8l6,8.3l6-8.3h8.7L173.2,39l11.6,16H176l-7.2-9.9l-7.2,9.9H153c2.9-4,5.8-8,8.7-12
		c0.2-0.3,3-3.7,2.8-3.9c-1.2-1.6-2.3-3.2-3.5-4.9C158.7,31,156.4,27.9,154.1,24.7z"/>
	<path fill="#F58220" d="M207.3,28.9l-4.7,4.7c-1.2-1.2-2.8-2.5-4.5-2.8c-1.4-0.2-4.1,0.4-3.3,2.4c0.4,1.1,2,1.6,2.9,2.1
		c0.8,0.4,1.6,0.8,2.5,1.2c2.1,1.1,4.4,2.3,5.9,4.2c1.5,2,2,4.5,1.7,7c-0.8,5-5.4,7.7-10.1,7.9c-2.3,0.1-4.7-0.3-6.8-1.3
		c-1-0.5-1.9-1.1-2.7-1.9c-0.2-0.2-1.9-1.8-1.7-2c1.5-1.7,3.1-3.4,4.6-5c1.4,1.6,3.4,3,5.5,3.4c1.6,0.3,4.3-0.4,4.1-2.5
		c-0.2-2.4-4-3.6-5.9-4.5c-2.6-1.3-5.3-3.2-6.6-5.9c-1.3-2.7-0.9-6,0.9-8.3C193.8,21.7,203.1,23.4,207.3,28.9z"/>
	<path fill="#F58220" d="M216.8,12.2c2.7,0,4.9,2.3,4.9,5c0,2.6-2.1,4.9-4.8,4.9c-2.7,0-4.9-2.3-4.9-5
		C211.9,14.4,214.1,12.2,216.8,12.2z M213,24.7h7.6V55c-2.4,0-4.9,0-7.3,0c-0.4,0-0.3-0.1-0.3-0.5c0-0.8,0-1.5,0-2.3c0-6,0-12,0-18
		C213,31,213,27.9,213,24.7z"/>
	<path fill="#F58220" d="M228.4,13.6h7.6v11.2h4.5v6.5H236V55h-7.6V31.3h-3.9v-6.5c1.3,0,2.6,0,3.8,0c0.1,0,0-2.5,0-2.7
		C228.4,19.2,228.4,16.4,228.4,13.6z"/>
	<path fill="#F58220" d="M274.9,42.1h-24.4c0.5,3,2.4,5.5,5.3,6.5c2.9,1,6.4,0.6,9-1.1c0.7-0.4,1.4-1.6,2.1-1.2
		c0.7,0.3,1.4,0.7,2.1,1c1.3,0.6,2.6,1.2,3.9,1.8c-3.3,4.7-8.4,6.7-14,6.6c-5.1-0.1-9.8-2.2-12.9-6.3c-6.1-8.4-2.3-21.7,7.9-24.8
		c5.5-1.7,11.9-0.5,16.1,3.5C273.9,31.8,275,36.8,274.9,42.1z M267.3,36.1c-1.1-3.6-4.5-5.7-8.1-5.7c-1.8,0-3.6,0.5-5.1,1.4
		c-1.6,1-2.5,2.6-3.3,4.3C256.3,36.1,261.8,36.1,267.3,36.1z"/>
	<path fill="#F58220" d="M299.6,28.9l-4.7,4.7c-1.2-1.2-2.8-2.5-4.5-2.8c-1.4-0.2-4.1,0.4-3.3,2.4c0.4,1.1,2,1.6,2.9,2.1
		c0.8,0.4,1.6,0.8,2.5,1.2c2.1,1.1,4.4,2.3,5.9,4.2c1.5,2,2,4.5,1.7,7c-0.8,5-5.4,7.7-10.1,7.9c-2.3,0.1-4.7-0.3-6.8-1.3
		c-1-0.5-1.9-1.1-2.7-1.9c-0.2-0.2-1.9-1.8-1.7-2c1.5-1.7,3.1-3.4,4.6-5c1.4,1.6,3.4,3,5.5,3.4c1.6,0.3,4.3-0.4,4.1-2.5
		c-0.2-2.4-4-3.6-5.9-4.5c-2.6-1.3-5.3-3.2-6.6-5.9c-1.3-2.7-0.9-6,0.9-8.3C286.1,21.7,295.5,23.4,299.6,28.9z"/>
</g>
<g>
	<path fill="#A7A9AC" d="M310.7,47.1c2.4,0,4.4,1.9,4.4,4.3c0,2.4-2,4.4-4.4,4.4c-2.4,0-4.4-2-4.4-4.4
		C306.3,49,308.3,47.1,310.7,47.1z"/>
	<path fill="#A7A9AC" d="M325.5,12.2c2.7,0,4.9,2.3,4.9,5c0,2.6-2.1,4.9-4.8,4.9c-2.7,0-4.9-2.3-4.9-5
		C320.6,14.4,322.8,12.2,325.5,12.2z M321.7,24.7h7.6V55c-2.4,0-4.9,0-7.3,0c-0.4,0-0.3-0.1-0.3-0.5c0-0.8,0-1.5,0-2.3
		c0-6,0-12,0-18C321.7,31,321.7,27.9,321.7,24.7z"/>
	<path fill="#A7A9AC" d="M350.4,23.9c5.5,0,10.9,2.9,13.8,7.7c3,5,3,11.5,0,16.5c-2.8,4.7-7.9,7.6-13.4,7.7
		c-5.3,0.1-10.2-2.4-13.3-6.8c-3.3-4.6-3.7-11.2-1.2-16.3C338.9,27.5,344.5,23.9,350.4,23.9z M350.5,31.1c-4.9,0-8.3,4-8.3,8.8
		c0,4.8,3.3,8.9,8.2,8.9c4.9,0,8.3-4.1,8.3-8.9C358.8,35.1,355.5,31.1,350.5,31.1z"/>
</g>
</svg>
