<?xml version="1.0" encoding="utf-8"?>
<!-- Generator: Adobe Illustrator 18.1.1, SVG Export Plug-In . SVG Version: 6.00 Build 0)  -->
<svg version="1.1" id="Layer_1" xmlns="http://www.w3.org/2000/svg" xmlns:xlink="http://www.w3.org/1999/xlink" x="0px" y="0px"
	 viewBox="0 0 125.3 118.1" enable-background="new 0 0 125.3 118.1" xml:space="preserve">
<path fill="#FFFFFF" d="M65.8,0.1L12,8.8c-6.5,1-12,5.5-12,12v45.8c0,6.7,5.5,10.9,12,12l6,1.2l-0.3,16.7l16-13.7l32.1,6
	c6.5,1.2,12-5.5,12-12V12.2C78,5.5,72.3-1,65.8,0.1z"/>
<path fill="#D2D3D4" d="M59.5,21.7l53.8,8.7c6.5,1,12,5.5,12,12v45.8c0,6.7-5.5,10.9-12,12l-6,1.2l0.3,16.7l-16-13.7l-32.1,6
	c-6.5,1.2-12-5.5-12-12V33.7C47.4,27,52.9,20.5,59.5,21.7z"/>
<path fill="#939598" d="M47.4,85.3L66,88.8c6.5,1.2,12-5.5,12-12V24.7l-18.5-3c-6.5-1-12,5.5-12,12V85.3z"/>
</svg>
