<?xml version="1.0" encoding="utf-8"?>
<!-- Generator: Adobe Illustrator 18.1.1, SVG Export Plug-In . SVG Version: 6.00 Build 0)  -->
<svg version="1.1" id="Layer_1" xmlns="http://www.w3.org/2000/svg" xmlns:xlink="http://www.w3.org/1999/xlink" x="0px" y="0px"
	 viewBox="-122 361.3 366.4 70.7" enable-background="new -122 361.3 366.4 70.7" xml:space="preserve">
<rect x="-229.1" y="668.1" fill="#FFFFFF" width="629.7" height="181"/>
<rect x="-229.1" y="487.1" width="629.7" height="181"/>
<path fill="#FFFFFF" d="M-82.6,361.4l-32.2,5.2c-3.9,0.6-7.2,3.3-7.2,7.2v27.4c0,4,3.3,6.5,7.2,7.2l3.6,0.7l-0.2,10l9.6-8.2
	l19.2,3.6c3.9,0.7,7.2-3.3,7.2-7.2v-38.7C-75.3,364.6-78.7,360.7-82.6,361.4z"/>
<path fill="#D1D3D4" d="M-86.4,374.3l32.2,5.2c3.9,0.6,7.2,3.3,7.2,7.2v27.4c0,4-3.3,6.5-7.2,7.2l-3.6,0.7l0.2,10l-9.6-8.2
	l-19.2,3.6c-3.9,0.7-7.2-3.3-7.2-7.2v-38.7C-93.6,377.5-90.3,373.6-86.4,374.3z"/>
<path fill="#939598" d="M-93.6,412.4l11.1,2.1c3.9,0.7,7.2-3.3,7.2-7.2v-31.2l-11.1-1.8c-3.9-0.6-7.2,3.3-7.2,7.2
	C-93.6,381.5-93.6,412.4-93.6,412.4z"/>
<g>
	<g>
		<path fill="#F58220" d="M-82.6,542.4l-32.2,5.2c-3.9,0.6-7.2,3.3-7.2,7.2v27.4c0,4,3.3,6.5,7.2,7.2l3.6,0.7l-0.2,10l9.6-8.2
			l19.2,3.6c3.9,0.7,7.2-3.3,7.2-7.2v-38.6C-75.3,545.6-78.7,541.7-82.6,542.4z"/>
		<path fill="#D1D3D4" d="M-86.4,555.3l32.2,5.2c3.9,0.6,7.2,3.3,7.2,7.2v27.4c0,4-3.3,6.5-7.2,7.2l-3.6,0.7l0.2,10l-9.6-8.2
			l-19.2,3.6c-3.9,0.7-7.2-3.3-7.2-7.2v-38.6C-93.6,558.5-90.3,554.6-86.4,555.3z"/>
		<path fill="#939598" d="M-93.6,593.4l11.1,2.1c3.9,0.7,7.2-3.3,7.2-7.2v-31.2l-11.1-1.8c-3.9-0.6-7.2,3.3-7.2,7.2
			C-93.6,562.5-93.6,593.4-93.6,593.4z"/>
	</g>
	<g>
		<path fill="#F58220" d="M-4.9,573.2l-6.3,3.5c-1.2-1.2-2.4-2.1-3.5-2.6c-1.2-0.5-2.5-0.7-4.1-0.7c-2.8,0-5.1,0.8-6.9,2.5
			c-1.7,1.7-2.6,3.9-2.6,6.5c0,2.6,0.8,4.7,2.5,6.3c1.7,1.6,3.9,2.5,6.7,2.5c3.4,0,6-1.2,7.9-3.5l6,4.1c-3.3,4.2-7.8,6.3-13.8,6.3
			c-5.3,0-9.5-1.6-12.5-4.7c-3-3.2-4.5-6.9-4.5-11.1c0-2.9,0.7-5.6,2.2-8.1s3.5-4.4,6.1-5.8c2.6-1.4,5.6-2.1,8.8-2.1
			c3,0,5.7,0.6,8.1,1.8S-6.4,571-4.9,573.2L-4.9,573.2z M12.2,566.3c2.9,0,5.6,0.7,8.1,2.1c2.5,1.4,4.5,3.4,5.9,5.8
			c1.4,2.5,2.1,5.1,2.1,7.9c0,2.9-0.7,5.5-2.1,8c-1.4,2.5-3.4,4.4-5.8,5.8c-2.5,1.4-5.2,2.1-8.1,2.1c-4.3,0-8.1-1.5-11.1-4.6
			c-3-3.1-4.6-6.8-4.6-11.3c0-4.7,1.7-8.7,5.2-11.8C4.8,567.6,8.3,566.3,12.2,566.3L12.2,566.3z M12.3,573.4c-2.4,0-4.3,0.8-5.9,2.5
			c-1.6,1.6-2.3,3.7-2.3,6.3c0,2.6,0.8,4.8,2.3,6.4c1.5,1.6,3.5,2.5,5.9,2.5s4.4-0.8,5.9-2.5c1.6-1.7,2.4-3.8,2.4-6.4
			c0-2.6-0.8-4.7-2.3-6.3C16.7,574.2,14.7,573.4,12.3,573.4L12.3,573.4z M32.8,567h7.6v3.5c1.3-1.4,2.7-2.5,4.3-3.2s3.3-1.1,5.2-1.1
			s3.6,0.5,5.1,1.4s2.7,2.3,3.7,4.1c1.2-1.8,2.7-3.1,4.4-4.1c1.8-0.9,3.7-1.4,5.8-1.4c2.2,0,4,0.5,5.7,1.5c1.6,1,2.8,2.3,3.5,3.9
			s1.1,4.2,1.1,7.9v17.8h-7.7v-15.4c0-3.4-0.4-5.8-1.3-7c-0.9-1.2-2.1-1.8-3.8-1.8c-1.3,0-2.5,0.4-3.5,1.1s-1.8,1.8-2.3,3.1
			s-0.8,3.4-0.8,6.3v13.7h-7.7v-14.7c0-2.7-0.2-4.7-0.6-5.9c-0.4-1.2-1-2.1-1.8-2.7s-1.8-0.9-2.9-0.9c-1.3,0-2.4,0.4-3.4,1.1
			c-1,0.8-1.8,1.8-2.3,3.2c-0.5,1.4-0.8,3.5-0.8,6.4v13.5h-7.6V567H32.8z M115.3,584.4H90.9c0.4,2.1,1.3,3.9,2.8,5.1
			c1.5,1.3,3.5,1.9,5.9,1.9c2.8,0,5.3-1,7.3-3l6.4,3c-1.6,2.3-3.5,3.9-5.7,5c-2.2,1.1-4.9,1.6-7.9,1.6c-4.8,0-8.6-1.5-11.6-4.5
			s-4.5-6.8-4.5-11.3c0-4.6,1.5-8.5,4.5-11.5c3-3.1,6.7-4.6,11.2-4.6c4.8,0,8.7,1.5,11.6,4.6c3,3.1,4.5,7.1,4.5,12.1L115.3,584.4
			L115.3,584.4z M107.6,578.4c-0.5-1.7-1.5-3.1-3-4.1c-1.5-1.1-3.2-1.6-5.1-1.6c-2.1,0-4,0.6-5.6,1.8c-1,0.7-1.9,2.1-2.8,3.9
			L107.6,578.4L107.6,578.4z M142.2,555.4h7.6v42h-7.6v-3.2c-1.5,1.4-3,2.4-4.5,3.1c-1.5,0.6-3.1,0.9-4.9,0.9
			c-3.9,0-7.3-1.5-10.2-4.6c-2.9-3-4.3-6.8-4.3-11.3c0-4.7,1.4-8.5,4.1-11.5c2.8-3,6.1-4.5,10.1-4.5c1.8,0,3.5,0.4,5.1,1
			c1.6,0.7,3.1,1.7,4.4,3.1v-15H142.2z M134.2,573.3c-2.4,0-4.3,0.8-5.9,2.5c-1.6,1.7-2.3,3.8-2.3,6.4c0,2.6,0.8,4.8,2.4,6.5
			c1.6,1.7,3.5,2.5,5.9,2.5c2.4,0,4.4-0.8,6-2.5c1.6-1.7,2.4-3.8,2.4-6.5c0-2.6-0.8-4.8-2.4-6.4
			C138.6,574.1,136.7,573.3,134.2,573.3L134.2,573.3z M158.9,554.6c1.3,0,2.5,0.5,3.4,1.4c1,1,1.4,2.1,1.4,3.5
			c0,1.4-0.5,2.5-1.4,3.5c-1,1-2.1,1.4-3.4,1.4c-1.4,0-2.5-0.5-3.5-1.5s-1.4-2.2-1.4-3.5s0.5-2.5,1.4-3.4
			C156.4,555,157.5,554.6,158.9,554.6L158.9,554.6z M155.1,567h7.6v30.3h-7.6V567L155.1,567z M190.4,567h7.6v30.3h-7.6v-3.2
			c-1.5,1.4-3,2.4-4.5,3.1c-1.5,0.6-3.1,0.9-4.9,0.9c-3.9,0-7.3-1.5-10.2-4.6c-2.9-3-4.3-6.8-4.3-11.3c0-4.7,1.4-8.5,4.1-11.5
			c2.8-3,6.1-4.5,10.1-4.5c1.8,0,3.5,0.4,5.1,1c1.6,0.7,3.1,1.7,4.4,3.1V567H190.4z M182.4,573.3c-2.4,0-4.3,0.8-5.9,2.5
			s-2.3,3.8-2.3,6.4c0,2.6,0.8,4.8,2.4,6.5c1.6,1.7,3.5,2.5,5.9,2.5s4.4-0.8,6-2.5c1.6-1.7,2.4-3.8,2.4-6.5c0-2.6-0.8-4.8-2.4-6.4
			C186.8,574.1,184.8,573.3,182.4,573.3L182.4,573.3z M204,567h7.6v3.1c1.7-1.5,3.3-2.5,4.7-3c1.4-0.6,2.8-0.9,4.3-0.9
			c3,0,5.6,1.1,7.7,3.2c1.8,1.8,2.6,4.4,2.6,7.9v20h-7.5V584c0-3.6-0.2-6-0.5-7.2s-0.9-2.1-1.7-2.7c-0.8-0.6-1.8-0.9-3-0.9
			c-1.5,0-2.9,0.5-4,1.5s-1.9,2.5-2.3,4.3c-0.2,1-0.3,3-0.3,6.2v12.1H204V567z"/>
		<path fill="#A7A9AC" d="M240.8,589.4c1.2,0,2.2,0.4,3.1,1.3c0.9,0.8,1.3,1.9,1.3,3.1s-0.4,2.2-1.3,3.1s-1.9,1.3-3.1,1.3
			s-2.2-0.4-3.1-1.3s-1.3-1.9-1.3-3.1s0.4-2.2,1.3-3.1C238.6,589.8,239.6,589.4,240.8,589.4L240.8,589.4z M254,554.6
			c1.3,0,2.5,0.5,3.4,1.4c1,1,1.4,2.1,1.4,3.5c0,1.4-0.5,2.5-1.4,3.5c-1,1-2.1,1.4-3.4,1.4c-1.4,0-2.5-0.5-3.5-1.5s-1.4-2.2-1.4-3.5
			s0.5-2.5,1.4-3.4C251.5,555,252.7,554.6,254,554.6L254,554.6z M250.2,567h7.6v30.3h-7.6V567L250.2,567z M277.3,566.3
			c2.9,0,5.6,0.7,8.1,2.1c2.5,1.4,4.5,3.4,5.9,5.8c1.4,2.5,2.1,5.1,2.1,7.9c0,2.9-0.7,5.5-2.1,8s-3.4,4.4-5.8,5.8
			c-2.5,1.4-5.2,2.1-8.1,2.1c-4.3,0-8.1-1.5-11.1-4.6c-3-3.1-4.6-6.8-4.6-11.3c0-4.7,1.7-8.7,5.2-11.8
			C269.9,567.6,273.4,566.3,277.3,566.3L277.3,566.3z M277.4,573.4c-2.4,0-4.3,0.8-5.9,2.5c-1.6,1.7-2.3,3.7-2.3,6.3
			c0,2.6,0.8,4.8,2.3,6.4c1.5,1.6,3.5,2.5,5.9,2.5s4.4-0.8,5.9-2.5c1.6-1.7,2.4-3.8,2.4-6.4c0-2.6-0.8-4.7-2.3-6.3
			C281.8,574.2,279.9,573.4,277.4,573.4z"/>
	</g>
</g>
<g>
	<g>
		<path fill="#8F8F8F" d="M-82.6,723.4l-32.2,5.2c-3.9,0.6-7.2,3.3-7.2,7.2v27.4c0,4,3.3,6.5,7.2,7.2l3.6,0.7l-0.2,10l9.6-8.2
			l19.2,3.6c3.9,0.7,7.2-3.3,7.2-7.2v-38.6C-75.3,726.6-78.7,722.7-82.6,723.4z"/>
		<path fill="#C1C1C1" d="M-86.4,736.3l32.2,5.2c3.9,0.6,7.2,3.3,7.2,7.2V776c0,4-3.3,6.5-7.2,7.2l-3.6,0.7l0.2,10l-9.6-8.2
			l-19.2,3.6c-3.9,0.7-7.2-3.3-7.2-7.2v-38.6C-93.6,739.5-90.3,735.6-86.4,736.3z"/>
		<path fill="#707070" d="M-93.6,774.4l11.1,2.1c3.9,0.7,7.2-3.3,7.2-7.2v-31.2l-11.1-1.8c-3.9-0.6-7.2,3.3-7.2,7.2
			C-93.6,743.5-93.6,774.4-93.6,774.4z"/>
	</g>
	<path fill="#8F8F8F" d="M-4.9,754.2l-6.3,3.5c-1.2-1.2-2.4-2.1-3.5-2.6c-1.2-0.5-2.5-0.7-4.1-0.7c-2.8,0-5.1,0.8-6.9,2.5
		c-1.7,1.7-2.6,3.9-2.6,6.5s0.8,4.7,2.5,6.3s3.9,2.5,6.7,2.5c3.4,0,6-1.2,7.9-3.5l6,4.1c-3.3,4.2-7.8,6.3-13.8,6.3
		c-5.3,0-9.5-1.6-12.5-4.7c-3-3.2-4.5-6.9-4.5-11.1c0-2.9,0.7-5.6,2.2-8.1s3.5-4.4,6.1-5.8c2.6-1.4,5.6-2.1,8.8-2.1
		c3,0,5.7,0.6,8.1,1.8S-6.4,752-4.9,754.2L-4.9,754.2z M204,748h7.6v3.1c1.7-1.5,3.3-2.5,4.7-3c1.4-0.6,2.8-0.9,4.3-0.9
		c3,0,5.6,1.1,7.7,3.2c1.8,1.8,2.6,4.4,2.6,7.9v20h-7.5V765c0-3.6-0.2-6-0.5-7.2c-0.3-1.2-0.9-2.1-1.7-2.7c-0.8-0.6-1.8-0.9-3-0.9
		c-1.5,0-2.9,0.5-4,1.5s-1.9,2.5-2.3,4.3c-0.2,1-0.3,3-0.3,6.2v12.1H204V748L204,748z M190.4,748h7.6v30.3h-7.6v-3.2
		c-1.5,1.4-3,2.4-4.5,3.1c-1.5,0.6-3.1,0.9-4.9,0.9c-3.9,0-7.3-1.5-10.2-4.6c-2.9-3-4.3-6.8-4.3-11.3c0-4.7,1.4-8.5,4.1-11.5
		c2.8-3,6.1-4.5,10.1-4.5c1.8,0,3.5,0.4,5.1,1c1.6,0.7,3.1,1.7,4.4,3.1V748H190.4z M182.4,754.3c-2.4,0-4.3,0.8-5.9,2.5
		s-2.3,3.8-2.3,6.4c0,2.6,0.8,4.8,2.4,6.5c1.6,1.7,3.5,2.5,5.9,2.5s4.4-0.8,6-2.5c1.6-1.7,2.4-3.8,2.4-6.5c0-2.6-0.8-4.8-2.4-6.4
		C186.8,755.1,184.8,754.3,182.4,754.3L182.4,754.3z M158.9,735.6c1.3,0,2.5,0.5,3.4,1.4c1,1,1.4,2.1,1.4,3.5c0,1.4-0.5,2.5-1.4,3.5
		c-1,1-2.1,1.4-3.4,1.4c-1.4,0-2.5-0.5-3.5-1.5s-1.4-2.2-1.4-3.5s0.5-2.5,1.4-3.4C156.4,736,157.5,735.6,158.9,735.6L158.9,735.6z
		 M155.1,748h7.6v30.3h-7.6V748L155.1,748z M142.2,736.3h7.6v42h-7.6v-3.2c-1.5,1.4-3,2.4-4.5,3.1c-1.5,0.6-3.1,0.9-4.9,0.9
		c-3.9,0-7.3-1.5-10.2-4.6c-2.9-3-4.3-6.8-4.3-11.3c0-4.7,1.4-8.5,4.1-11.5c2.8-3,6.1-4.5,10.1-4.5c1.8,0,3.5,0.4,5.1,1
		c1.6,0.7,3.1,1.7,4.4,3.1v-15H142.2z M134.2,754.3c-2.4,0-4.3,0.8-5.9,2.5c-1.6,1.7-2.3,3.8-2.3,6.4c0,2.6,0.8,4.8,2.4,6.5
		c1.6,1.7,3.5,2.5,5.9,2.5c2.4,0,4.4-0.8,6-2.5c1.6-1.7,2.4-3.8,2.4-6.5c0-2.6-0.8-4.8-2.4-6.4C138.6,755.1,136.7,754.3,134.2,754.3
		L134.2,754.3z M115.3,765.4H90.9c0.4,2.1,1.3,3.9,2.8,5.1c1.5,1.3,3.5,1.9,5.9,1.9c2.8,0,5.3-1,7.3-3l6.4,3c-1.6,2.3-3.5,3.9-5.7,5
		c-2.2,1.1-4.9,1.6-7.9,1.6c-4.8,0-8.6-1.5-11.6-4.5s-4.5-6.8-4.5-11.3c0-4.6,1.5-8.5,4.5-11.5c3-3.1,6.7-4.6,11.2-4.6
		c4.8,0,8.7,1.5,11.6,4.6c3,3.1,4.5,7.1,4.5,12.1L115.3,765.4L115.3,765.4z M107.6,759.4c-0.5-1.7-1.5-3.1-3-4.1
		c-1.5-1.1-3.2-1.6-5.1-1.6c-2.1,0-4,0.6-5.6,1.8c-1,0.7-1.9,2.1-2.8,3.9L107.6,759.4L107.6,759.4z M32.8,748h7.6v3.5
		c1.3-1.4,2.7-2.5,4.3-3.2s3.3-1.1,5.2-1.1s3.6,0.5,5.1,1.4s2.7,2.3,3.7,4.1c1.2-1.8,2.7-3.1,4.4-4.1c1.8-0.9,3.7-1.4,5.8-1.4
		c2.2,0,4,0.5,5.7,1.5c1.6,1,2.8,2.3,3.5,3.9s1.1,4.2,1.1,7.9v17.8h-7.7v-15.4c0-3.4-0.4-5.8-1.3-7c-0.9-1.2-2.1-1.8-3.8-1.8
		c-1.3,0-2.5,0.4-3.5,1.1s-1.8,1.8-2.3,3.1c-0.5,1.3-0.8,3.4-0.8,6.3v13.7h-7.7v-14.7c0-2.7-0.2-4.7-0.6-5.9c-0.4-1.2-1-2.1-1.8-2.7
		c-0.8-0.6-1.8-0.9-2.9-0.9c-1.3,0-2.4,0.4-3.4,1.1c-1,0.8-1.8,1.8-2.3,3.2c-0.5,1.4-0.8,3.5-0.8,6.4v13.5h-7.6V748H32.8z
		 M12.2,747.3c2.9,0,5.6,0.7,8.1,2.1c2.5,1.4,4.5,3.4,5.9,5.8c1.4,2.5,2.1,5.1,2.1,7.9c0,2.9-0.7,5.5-2.1,8
		c-1.4,2.5-3.4,4.4-5.8,5.8c-2.5,1.4-5.2,2.1-8.1,2.1c-4.3,0-8.1-1.5-11.1-4.6c-3.1-3.1-4.6-6.8-4.6-11.3c0-4.7,1.7-8.7,5.2-11.8
		C4.8,748.6,8.3,747.3,12.2,747.3L12.2,747.3z M12.3,754.4c-2.4,0-4.3,0.8-5.9,2.5c-1.6,1.6-2.3,3.7-2.3,6.3c0,2.6,0.8,4.8,2.3,6.4
		s3.5,2.5,5.9,2.5s4.4-0.8,5.9-2.5c1.6-1.7,2.4-3.8,2.4-6.4c0-2.6-0.8-4.7-2.3-6.3C16.7,755.2,14.7,754.4,12.3,754.4z"/>
	<path fill="#707070" d="M240.8,770.4c1.2,0,2.2,0.4,3.1,1.3c0.9,0.8,1.3,1.9,1.3,3.1s-0.4,2.2-1.3,3.1c-0.9,0.9-1.9,1.3-3.1,1.3
		s-2.2-0.4-3.1-1.3c-0.9-0.9-1.3-1.9-1.3-3.1s0.4-2.2,1.3-3.1C238.6,770.8,239.6,770.4,240.8,770.4L240.8,770.4z M277.3,747.3
		c2.9,0,5.6,0.7,8.1,2.1c2.5,1.4,4.5,3.4,5.9,5.8c1.4,2.5,2.1,5.1,2.1,7.9c0,2.9-0.7,5.5-2.1,8s-3.4,4.4-5.8,5.8
		c-2.5,1.4-5.2,2.1-8.1,2.1c-4.3,0-8.1-1.5-11.1-4.6c-3.1-3.1-4.6-6.8-4.6-11.3c0-4.7,1.7-8.7,5.2-11.8
		C269.9,748.6,273.4,747.3,277.3,747.3L277.3,747.3z M277.4,754.4c-2.4,0-4.3,0.8-5.9,2.5c-1.6,1.6-2.3,3.7-2.3,6.3
		c0,2.6,0.8,4.8,2.3,6.4s3.5,2.5,5.9,2.5s4.4-0.8,5.9-2.5c1.6-1.7,2.4-3.8,2.4-6.4c0-2.6-0.8-4.7-2.3-6.3
		C281.8,755.2,279.9,754.4,277.4,754.4L277.4,754.4z M254,735.6c1.3,0,2.5,0.5,3.4,1.4c1,1,1.4,2.1,1.4,3.5c0,1.4-0.5,2.5-1.4,3.5
		c-1,1-2.1,1.4-3.4,1.4c-1.4,0-2.5-0.5-3.5-1.5s-1.4-2.2-1.4-3.5s0.5-2.5,1.4-3.4C251.5,736,252.7,735.6,254,735.6L254,735.6z
		 M250.2,748h7.6v30.3h-7.6V748z"/>
</g>
<g>
	<path fill="#FFFFFF" d="M-34.9,386h2.7c0-2.4-0.2-5,0.2-7.4c0.5-3.3,3.3-4.9,6.4-5.1c1.7-0.1,3.4,0.2,5,0.7
		c0.4,0.1,1.1,0.1,1.1,0.6c0,0.3,0,0.7,0,1c0,1.5,0,3,0,4.6c-1.2-0.3-2.6-0.7-3.9-0.3c-1.1,0.3-1.2,1.2-1.2,2.2c0,1.2,0,2.5,0,3.7
		h4.8v6.4h-4.8v23.9h-7.6v-23.9c-0.8,0-1.6,0-2.4,0c-0.5,0-0.3-0.9-0.3-1.3C-34.9,389.5-34.9,387.7-34.9,386z"/>
	<path fill="#FFFFFF" d="M-16.2,374.3h7.6v42c-2.4,0-4.9,0-7.3,0c-0.4,0-0.3,0-0.3-0.4c0-0.6,0-1.2,0-1.7c0-5.3,0-10.6,0-16
		C-16.2,390.2-16.2,382.3-16.2,374.3z"/>
	<path fill="#FFFFFF" d="M28.7,403.4H4.3c0.5,3,2.4,5.5,5.3,6.5s6.4,0.6,9-1.1c0.7-0.4,1.4-1.6,2.1-1.2c0.7,0.3,1.4,0.7,2.1,1
		c1.3,0.6,2.6,1.2,3.9,1.8c-3.3,4.7-8.4,6.7-14,6.6c-5.1-0.1-9.8-2.2-12.9-6.3c-6.1-8.4-2.3-21.7,7.9-24.8
		c5.5-1.7,11.9-0.5,16.1,3.5C27.7,393.1,28.8,398.1,28.7,403.4z M21.1,397.4c-1.1-3.6-4.5-5.7-8.1-5.7c-1.8,0-3.6,0.5-5.1,1.4
		c-1.6,1-2.5,2.6-3.3,4.3C10.1,397.4,15.6,397.4,21.1,397.4z"/>
	<path fill="#FFFFFF" d="M32.1,386h8.8l6,8.3l6-8.3h8.7l-10.4,14.3l11.6,16H54l-7.2-9.9l-7.2,9.9H31c2.9-4,5.8-8,8.7-12
		c0.2-0.3,3-3.7,2.8-3.9c-1.2-1.6-2.3-3.2-3.5-4.9C36.7,392.3,34.4,389.2,32.1,386z"/>
	<path fill="#FFFFFF" d="M85.3,390.2l-4.7,4.7c-1.2-1.2-2.8-2.5-4.5-2.8c-1.4-0.2-4.1,0.4-3.3,2.4c0.4,1.1,2,1.6,2.9,2.1
		c0.8,0.4,1.6,0.8,2.5,1.2c2.1,1.1,4.4,2.3,5.9,4.2c1.5,2,2,4.5,1.7,7c-0.8,5-5.4,7.7-10.1,7.9c-2.3,0.1-4.7-0.3-6.8-1.3
		c-1-0.5-1.9-1.1-2.7-1.9c-0.2-0.2-1.9-1.8-1.7-2c1.5-1.7,3.1-3.4,4.6-5c1.4,1.6,3.4,3,5.5,3.4c1.6,0.3,4.3-0.4,4.1-2.5
		c-0.2-2.4-4-3.6-5.9-4.5c-2.6-1.3-5.3-3.2-6.6-5.9c-1.3-2.7-0.9-6,0.9-8.3C71.8,383,81.1,384.7,85.3,390.2z"/>
	<path fill="#FFFFFF" d="M94.8,373.5c2.7,0,4.9,2.3,4.9,5c0,2.6-2.1,4.9-4.8,4.9s-4.9-2.3-4.9-5C89.9,375.7,92.1,373.5,94.8,373.5z
		 M91,386h7.6v30.3c-2.4,0-4.9,0-7.3,0c-0.4,0-0.3-0.1-0.3-0.5c0-0.8,0-1.5,0-2.3c0-6,0-12,0-18C91,392.3,91,389.2,91,386z"/>
	<path fill="#FFFFFF" d="M106.4,374.9h7.6v11.2h4.5v6.5H114v23.7h-7.6v-23.7h-3.9v-6.5c1.3,0,2.6,0,3.8,0c0.1,0,0-2.5,0-2.7
		C106.4,380.5,106.4,377.7,106.4,374.9z"/>
	<path fill="#FFFFFF" d="M152.9,403.4h-24.4c0.5,3,2.4,5.5,5.3,6.5s6.4,0.6,9-1.1c0.7-0.4,1.4-1.6,2.1-1.2c0.7,0.3,1.4,0.7,2.1,1
		c1.3,0.6,2.6,1.2,3.9,1.8c-3.3,4.7-8.4,6.7-14,6.6c-5.1-0.1-9.8-2.2-12.9-6.3c-6.1-8.4-2.3-21.7,7.9-24.8
		c5.5-1.7,11.9-0.5,16.1,3.5C151.9,393.1,153,398.1,152.9,403.4z M145.3,397.4c-1.1-3.6-4.5-5.7-8.1-5.7c-1.8,0-3.6,0.5-5.1,1.4
		c-1.6,1-2.5,2.6-3.3,4.3C134.3,397.4,139.8,397.4,145.3,397.4z"/>
	<path fill="#FFFFFF" d="M177.6,390.2l-4.7,4.7c-1.2-1.2-2.8-2.5-4.5-2.8c-1.4-0.2-4.1,0.4-3.3,2.4c0.4,1.1,2,1.6,2.9,2.1
		c0.8,0.4,1.6,0.8,2.5,1.2c2.1,1.1,4.4,2.3,5.9,4.2c1.5,2,2,4.5,1.7,7c-0.8,5-5.4,7.7-10.1,7.9c-2.3,0.1-4.7-0.3-6.8-1.3
		c-1-0.5-1.9-1.1-2.7-1.9c-0.2-0.2-1.9-1.8-1.7-2c1.5-1.7,3.1-3.4,4.6-5c1.4,1.6,3.4,3,5.5,3.4c1.6,0.3,4.3-0.4,4.1-2.5
		c-0.2-2.4-4-3.6-5.9-4.5c-2.6-1.3-5.3-3.2-6.6-5.9c-1.3-2.7-0.9-6,0.9-8.3C164.1,383,173.5,384.7,177.6,390.2z"/>
</g>
<g>
	<path fill="#A7A9AC" d="M188.7,408.4c2.4,0,4.4,1.9,4.4,4.3s-2,4.4-4.4,4.4s-4.4-2-4.4-4.4C184.3,410.3,186.3,408.4,188.7,408.4z"
		/>
	<path fill="#A7A9AC" d="M203.5,373.5c2.7,0,4.9,2.3,4.9,5c0,2.6-2.1,4.9-4.8,4.9c-2.7,0-4.9-2.3-4.9-5
		C198.6,375.7,200.8,373.5,203.5,373.5z M199.7,386h7.6v30.3c-2.4,0-4.9,0-7.3,0c-0.4,0-0.3-0.1-0.3-0.5c0-0.8,0-1.5,0-2.3
		c0-6,0-12,0-18C199.7,392.3,199.7,389.2,199.7,386z"/>
	<path fill="#A7A9AC" d="M228.4,385.2c5.5,0,10.9,2.9,13.8,7.7c3,5,3,11.5,0,16.5c-2.8,4.7-7.9,7.6-13.4,7.7
		c-5.3,0.1-10.2-2.4-13.3-6.8c-3.3-4.6-3.7-11.2-1.2-16.3C216.9,388.8,222.5,385.2,228.4,385.2z M228.5,392.4c-4.9,0-8.3,4-8.3,8.8
		c0,4.8,3.3,8.9,8.2,8.9c4.9,0,8.3-4.1,8.3-8.9C236.8,396.4,233.5,392.4,228.5,392.4z"/>
</g>
</svg>
