<?xml version="1.0" encoding="utf-8"?>
<!-- Generator: Adobe Illustrator 16.0.0, SVG Export Plug-In . SVG Version: 6.00 Build 0)  -->
<!DOCTYPE svg PUBLIC "-//W3C//DTD SVG 1.1//EN" "http://www.w3.org/Graphics/SVG/1.1/DTD/svg11.dtd">
<svg version="1.1" id="Layer_1" xmlns="http://www.w3.org/2000/svg" xmlns:xlink="http://www.w3.org/1999/xlink" x="0px" y="0px"
	 width="415.4px" height="70.7px" viewBox="0 0 415.4 70.7" enable-background="new 0 0 415.4 70.7" xml:space="preserve">
<g>
	<g>
		<path fill-rule="evenodd" clip-rule="evenodd" fill="#F48120" d="M39.4,0.1L7.2,5.3C3.3,5.9,0,8.6,0,12.5v27.4
			c0,4,3.3,6.5,7.2,7.2l3.6,0.7l-0.2,10l9.6-8.2l19.2,3.6c3.9,0.7,7.2-3.3,7.2-7.2V7.3C46.7,3.3,43.3-0.6,39.4,0.1z"/>
		<path fill-rule="evenodd" clip-rule="evenodd" fill="#D0D2D3" d="M35.6,13l32.2,5.2c3.9,0.6,7.2,3.3,7.2,7.2v27.4
			c0,4-3.3,6.5-7.2,7.2l-3.6,0.7l0.2,10l-9.6-8.2l-19.2,3.6c-3.9,0.7-7.2-3.3-7.2-7.2V20.2C28.4,16.2,31.7,12.3,35.6,13z"/>
		<path fill-rule="evenodd" clip-rule="evenodd" fill="#929497" d="M28.4,51.1l11.1,2.1c3.9,0.7,7.2-3.3,7.2-7.2V14.8L35.6,13
			c-3.9-0.6-7.2,3.3-7.2,7.2V51.1z"/>
	</g>
	<g>
		<path fill="#F48120" d="M117.1,30.9l-6.3,3.5c-1.2-1.2-2.4-2.1-3.5-2.6c-1.2-0.5-2.5-0.7-4.1-0.7c-2.8,0-5.1,0.8-6.9,2.5
			c-1.7,1.7-2.6,3.9-2.6,6.5c0,2.6,0.8,4.7,2.5,6.3c1.7,1.6,3.9,2.5,6.7,2.5c3.4,0,6-1.2,7.9-3.5l6,4.1c-3.3,4.2-7.8,6.3-13.8,6.3
			c-5.3,0-9.5-1.6-12.5-4.7c-3-3.2-4.5-6.9-4.5-11.1c0-2.9,0.7-5.6,2.2-8.1c1.5-2.5,3.5-4.4,6.1-5.8c2.6-1.4,5.6-2.1,8.8-2.1
			c3,0,5.7,0.6,8.1,1.8C113.6,27,115.6,28.7,117.1,30.9L117.1,30.9z M134.2,24c2.9,0,5.6,0.7,8.1,2.1c2.5,1.4,4.5,3.4,5.9,5.8
			c1.4,2.5,2.1,5.1,2.1,7.9c0,2.9-0.7,5.5-2.1,8c-1.4,2.5-3.4,4.4-5.8,5.8c-2.5,1.4-5.2,2.1-8.1,2.1c-4.3,0-8.1-1.5-11.1-4.6
			c-3.1-3.1-4.6-6.8-4.6-11.3c0-4.7,1.7-8.7,5.2-11.8C126.8,25.3,130.3,24,134.2,24L134.2,24z M134.3,31.1c-2.4,0-4.3,0.8-5.9,2.5
			c-1.6,1.6-2.3,3.7-2.3,6.3c0,2.6,0.8,4.8,2.3,6.4c1.5,1.6,3.5,2.5,5.9,2.5c2.4,0,4.4-0.8,5.9-2.5s2.4-3.8,2.4-6.4
			c0-2.6-0.8-4.7-2.3-6.3C138.7,31.9,136.7,31.1,134.3,31.1L134.3,31.1z M154.8,24.7h7.6v3.5c1.3-1.4,2.7-2.5,4.3-3.2
			c1.6-0.7,3.3-1.1,5.2-1.1c1.9,0,3.6,0.5,5.1,1.4s2.7,2.3,3.7,4.1c1.2-1.8,2.7-3.1,4.4-4.1c1.8-0.9,3.7-1.4,5.8-1.4
			c2.2,0,4,0.5,5.7,1.5c1.6,1,2.8,2.3,3.5,3.9c0.7,1.6,1.1,4.2,1.1,7.9V55h-7.7V39.7c0-3.4-0.4-5.8-1.3-7c-0.9-1.2-2.1-1.8-3.8-1.8
			c-1.3,0-2.5,0.4-3.5,1.1c-1,0.7-1.8,1.8-2.3,3.1c-0.5,1.3-0.8,3.4-0.8,6.3V55h-7.7V40.4c0-2.7-0.2-4.7-0.6-5.9s-1-2.1-1.8-2.7
			c-0.8-0.6-1.8-0.9-2.9-0.9c-1.3,0-2.4,0.4-3.4,1.1c-1,0.8-1.8,1.8-2.3,3.2c-0.5,1.4-0.8,3.5-0.8,6.4V55h-7.6V24.7L154.8,24.7z
			 M237.3,42.1h-24.4c0.4,2.1,1.3,3.9,2.8,5.1c1.5,1.3,3.5,1.9,5.9,1.9c2.8,0,5.3-1,7.3-3l6.4,3c-1.6,2.3-3.5,3.9-5.7,5
			c-2.2,1.1-4.9,1.6-7.9,1.6c-4.8,0-8.6-1.5-11.6-4.5c-3-3-4.5-6.8-4.5-11.3c0-4.6,1.5-8.5,4.5-11.5c3-3.1,6.7-4.6,11.2-4.6
			c4.8,0,8.7,1.5,11.6,4.6c3,3.1,4.5,7.1,4.5,12.1L237.3,42.1L237.3,42.1z M229.6,36.1c-0.5-1.7-1.5-3.1-3-4.1
			c-1.5-1.1-3.2-1.6-5.1-1.6c-2.1,0-4,0.6-5.6,1.8c-1,0.7-1.9,2.1-2.8,3.9H229.6L229.6,36.1z M264.2,13.1h7.6v42h-7.6v-3.2
			c-1.5,1.4-3,2.4-4.5,3.1c-1.5,0.6-3.1,0.9-4.9,0.9c-3.9,0-7.3-1.5-10.2-4.6s-4.3-6.8-4.3-11.3c0-4.7,1.4-8.5,4.1-11.5
			c2.8-3,6.1-4.5,10.1-4.5c1.8,0,3.5,0.4,5.1,1c1.6,0.7,3.1,1.7,4.4,3.1V13.1L264.2,13.1z M256.2,31c-2.4,0-4.3,0.8-5.9,2.5
			c-1.6,1.7-2.3,3.8-2.3,6.4c0,2.6,0.8,4.8,2.4,6.5c1.6,1.7,3.5,2.5,5.9,2.5c2.4,0,4.4-0.8,6-2.5c1.6-1.7,2.4-3.8,2.4-6.5
			c0-2.6-0.8-4.8-2.4-6.4C260.6,31.8,258.7,31,256.2,31L256.2,31z M280.9,12.3c1.3,0,2.5,0.5,3.4,1.4c1,1,1.4,2.1,1.4,3.5
			c0,1.4-0.5,2.5-1.4,3.5c-1,1-2.1,1.4-3.4,1.4c-1.4,0-2.5-0.5-3.5-1.5c-1-1-1.4-2.2-1.4-3.5c0-1.3,0.5-2.5,1.4-3.4
			C278.4,12.7,279.5,12.3,280.9,12.3L280.9,12.3z M277.1,24.7h7.6V55h-7.6V24.7L277.1,24.7z M312.4,24.7h7.6V55h-7.6v-3.2
			c-1.5,1.4-3,2.4-4.5,3.1c-1.5,0.6-3.1,0.9-4.9,0.9c-3.9,0-7.3-1.5-10.2-4.6s-4.3-6.8-4.3-11.3c0-4.7,1.4-8.5,4.1-11.5
			c2.8-3,6.1-4.5,10.1-4.5c1.8,0,3.5,0.4,5.1,1c1.6,0.7,3.1,1.7,4.4,3.1V24.7L312.4,24.7z M304.4,31c-2.4,0-4.3,0.8-5.9,2.5
			c-1.6,1.7-2.3,3.8-2.3,6.4c0,2.6,0.8,4.8,2.4,6.5c1.6,1.7,3.5,2.5,5.9,2.5c2.4,0,4.4-0.8,6-2.5c1.6-1.7,2.4-3.8,2.4-6.5
			c0-2.6-0.8-4.8-2.4-6.4C308.8,31.8,306.8,31,304.4,31L304.4,31z M326,24.7h7.6v3.1c1.7-1.5,3.3-2.5,4.7-3c1.4-0.6,2.8-0.9,4.3-0.9
			c3,0,5.6,1.1,7.7,3.2c1.8,1.8,2.6,4.4,2.6,7.9v20h-7.5V41.8c0-3.6-0.2-6-0.5-7.2c-0.3-1.2-0.9-2.1-1.7-2.7c-0.8-0.6-1.8-0.9-3-0.9
			c-1.5,0-2.9,0.5-4,1.5c-1.1,1-1.9,2.5-2.3,4.3c-0.2,1-0.3,3-0.3,6.2V55H326V24.7z"/>
		<path fill="#A6A8AB" d="M362.8,47.1c1.2,0,2.2,0.4,3.1,1.3c0.9,0.8,1.3,1.9,1.3,3.1c0,1.2-0.4,2.2-1.3,3.1s-1.9,1.3-3.1,1.3
			c-1.2,0-2.2-0.4-3.1-1.3c-0.9-0.9-1.3-1.9-1.3-3.1c0-1.2,0.4-2.2,1.3-3.1C360.6,47.5,361.6,47.1,362.8,47.1L362.8,47.1z M376,12.3
			c1.3,0,2.5,0.5,3.4,1.4c1,1,1.4,2.1,1.4,3.5c0,1.4-0.5,2.5-1.4,3.5c-1,1-2.1,1.4-3.4,1.4c-1.4,0-2.5-0.5-3.5-1.5
			c-1-1-1.4-2.2-1.4-3.5c0-1.3,0.5-2.5,1.4-3.4C373.5,12.7,374.7,12.3,376,12.3L376,12.3z M372.2,24.7h7.6V55h-7.6V24.7L372.2,24.7z
			 M399.3,24c2.9,0,5.6,0.7,8.1,2.1c2.5,1.4,4.5,3.4,5.9,5.8c1.4,2.5,2.1,5.1,2.1,7.9c0,2.9-0.7,5.5-2.1,8c-1.4,2.5-3.4,4.4-5.8,5.8
			c-2.5,1.4-5.2,2.1-8.1,2.1c-4.3,0-8.1-1.5-11.1-4.6c-3.1-3.1-4.6-6.8-4.6-11.3c0-4.7,1.7-8.7,5.2-11.8
			C391.9,25.3,395.4,24,399.3,24L399.3,24z M399.4,31.1c-2.4,0-4.3,0.8-5.9,2.5s-2.3,3.7-2.3,6.3c0,2.6,0.8,4.8,2.3,6.4
			c1.5,1.6,3.5,2.5,5.9,2.5c2.4,0,4.4-0.8,5.9-2.5s2.4-3.8,2.4-6.4c0-2.6-0.8-4.7-2.3-6.3C403.8,31.9,401.9,31.1,399.4,31.1z"/>
	</g>
</g>
</svg>
